<svg width="195" height="40" viewBox="0 0 195 40" fill="none" xmlns="http://www.w3.org/2000/svg">
<path d="M20 40C31.0457 40 40 31.0457 40 20C40 8.95431 31.0457 0 20 0C8.95431 0 0 8.95431 0 20C0 31.0457 8.95431 40 20 40Z" fill="#EF3340"/>
<path d="M59.6836 15.3746C57.9241 14.6254 56.6208 14.5277 55.5455 14.5277C54.8287 14.5277 54.0141 14.5928 53.4602 15.0814C53.0041 15.4723 52.8737 15.9609 52.8737 16.4169C52.8737 16.7426 52.9389 17.2964 53.4277 17.6873C53.8186 18.013 54.7961 18.3062 55.2197 18.4365L56.8814 18.8925C57.8589 19.1531 59.0319 19.5114 59.8465 20.3583C60.5959 21.1726 60.7262 22.1498 60.7262 22.899C60.7262 24.7883 59.9442 25.8632 59.1948 26.4495C58.5432 26.9381 57.3702 27.5244 55.0568 27.5244C53.2322 27.5244 51.603 27.1987 49.9739 26.4169L50.6255 24.4951C52.1569 25.2443 53.8512 25.6026 55.1871 25.6026C55.904 25.6026 56.7185 25.4723 57.2724 25.0488C57.5331 24.8208 58.087 24.2997 58.087 23.2899C58.087 22.671 57.9241 22.0847 57.4353 21.6612C56.9792 21.2703 56.0995 20.9772 55.6759 20.8795L53.9816 20.3909C52.9063 20.0651 51.8637 19.6742 51.212 19.0553C50.4952 18.4039 50.2671 17.5896 50.2671 16.7101C50.2671 15.1466 50.9514 14.1368 51.603 13.6156C52.7434 12.671 54.4051 12.6058 55.513 12.6058C57.1095 12.6058 58.5106 12.8338 60.042 13.4527L59.6836 15.3746Z" fill="#161616"/>
<path d="M65.972 20.9446C65.972 21.4658 66.0697 23.355 67.0798 24.4951C67.8618 25.4071 68.8393 25.5374 69.7516 25.5374C70.5987 25.5374 72.0324 25.4397 74.1503 24.4299L74.8019 26.3518C73.0099 27.1987 71.2504 27.4592 69.5235 27.4592C68.4157 27.4592 66.5259 27.329 65.1248 26.0586C63.4631 24.5277 63.3328 22.0521 63.3328 20.0325C63.3328 18.469 63.4631 15.6677 65.1574 14.0716C66.5585 12.7036 68.8067 12.6058 69.8819 12.6058C70.9571 12.6058 72.8795 12.7361 74.1503 14.0065C75.4862 15.3746 75.7142 17.8827 75.6817 19.6417L65.972 20.9446ZM73.0424 18.1433C73.075 17.2312 72.7818 16.1563 72.3256 15.57C71.6088 14.6254 70.5662 14.5277 69.8493 14.5277C69.328 14.5277 67.8618 14.5602 66.9495 15.6026C66.2652 16.3518 65.9394 18.0781 65.9394 19.0879L73.0424 18.1433Z" fill="#161616"/>
<path d="M81.5466 12.8338V14.8534C82.1005 14.2345 82.687 13.8436 83.4364 13.4853C84.3813 13.0293 85.3588 12.8013 86.434 12.7687L86.7599 15.0162C85.815 14.9837 84.4791 15.1465 83.5342 15.6026C82.8499 15.9283 82.0679 16.5146 81.5466 17.4918V27.3615H79.0703V13.127L81.5466 12.8338Z" fill="#161616"/>
<path d="M99.5649 13.0944H101.911L96.5021 27.329H94.1562L88.7148 13.0944L91.4518 12.8013L95.5898 24.2019L99.5649 13.0944Z" fill="#161616"/>
<path d="M105.821 20.9446C105.821 21.4658 105.919 23.355 106.929 24.4951C107.711 25.4071 108.688 25.5374 109.6 25.5374C110.448 25.5374 111.881 25.4397 113.999 24.4299L114.651 26.3518C112.859 27.1987 111.099 27.4592 109.372 27.4592C108.265 27.4592 106.375 27.329 104.974 26.0586C103.312 24.5277 103.182 22.0521 103.182 20.0325C103.182 18.469 103.312 15.6677 105.006 14.0716C106.407 12.7036 108.656 12.6058 109.731 12.6058C110.806 12.6058 112.728 12.7361 113.999 14.0065C115.335 15.3746 115.563 17.8827 115.531 19.6417L105.821 20.9446ZM112.924 18.1433C112.956 17.2312 112.663 16.1563 112.207 15.57C111.49 14.6254 110.448 14.5277 109.731 14.5277C109.209 14.5277 107.743 14.5602 106.831 15.6026C106.147 16.3518 105.821 18.0781 105.821 19.0879L112.924 18.1433Z" fill="#161616"/>
<path d="M121.395 12.8338V14.8534C121.949 14.2345 122.536 13.8436 123.285 13.4853C124.23 13.0293 125.208 12.8013 126.283 12.7687L126.609 15.0162C125.664 14.9837 124.328 15.1465 123.383 15.6026C122.699 15.9283 121.917 16.5146 121.395 17.4918V27.3615H118.919V13.127L121.395 12.8338Z" fill="#161616"/>
<path d="M138.273 15.3746C136.514 14.6254 135.211 14.5277 134.135 14.5277C133.419 14.5277 132.604 14.5928 132.05 15.0814C131.594 15.4723 131.464 15.9609 131.464 16.4169C131.464 16.7426 131.529 17.2964 132.018 17.6873C132.408 18.013 133.386 18.3062 133.81 18.4365L135.471 18.8925C136.449 19.1531 137.622 19.5114 138.436 20.3583C139.186 21.1726 139.316 22.1498 139.316 22.899C139.316 24.7883 138.534 25.8632 137.785 26.4495C137.133 26.9381 135.96 27.5244 133.647 27.5244C131.822 27.5244 130.193 27.1987 128.564 26.4169L129.215 24.4951C130.747 25.2443 132.441 25.6026 133.777 25.6026C134.494 25.6026 135.308 25.4723 135.862 25.0488C136.123 24.8208 136.677 24.2997 136.677 23.2899C136.677 22.671 136.514 22.0847 136.025 21.6612C135.569 21.2703 134.689 20.9772 134.266 20.8795L132.571 20.3909C131.496 20.0651 130.454 19.6742 129.802 19.0553C129.085 18.4039 128.857 17.5896 128.857 16.7101C128.857 15.1466 129.541 14.1368 130.193 13.6156C131.333 12.671 132.995 12.6058 134.103 12.6058C135.699 12.6058 137.1 12.8338 138.632 13.4527L138.273 15.3746Z" fill="#161616"/>
<path d="M143.389 23.7458C144.431 23.7458 145.279 24.5602 145.279 25.6351C145.279 26.6774 144.464 27.5243 143.389 27.5243C142.314 27.5243 141.499 26.71 141.499 25.6351C141.532 24.5602 142.346 23.7458 143.389 23.7458Z" fill="#161616"/>
<path d="M157.53 15.3746C156.422 14.8534 155.151 14.5277 153.913 14.5277C152.382 14.5277 151.502 15.0489 150.981 15.57C150.068 16.5147 149.873 18.2411 149.873 20.0652C149.873 21.9544 150.101 23.5505 150.981 24.5603C151.763 25.4723 152.74 25.6026 153.652 25.6026C154.337 25.6026 155.673 25.5375 157.53 24.4951L158.181 26.417C156.552 27.2639 154.956 27.5244 153.457 27.5244C152.349 27.5244 150.394 27.3942 149.058 26.1238C147.396 24.5928 147.266 22.1499 147.266 20.0977C147.266 18.1108 147.429 15.57 149.058 14.0717C150.133 13.0945 151.893 12.671 153.848 12.671C155.379 12.671 156.65 12.9316 157.856 13.5179L157.53 15.3746Z" fill="#161616"/>
<path d="M161.765 14.0065C163.167 12.671 165.317 12.6058 166.555 12.6058C167.826 12.6058 169.911 12.671 171.345 14.0065C172.974 15.5374 173.137 18.1107 173.137 20.0651C173.137 22.0195 172.974 24.6254 171.345 26.1238C169.944 27.4593 167.793 27.5244 166.555 27.5244C165.284 27.5244 163.199 27.4593 161.765 26.1238C160.136 24.5928 159.973 22.0195 159.973 20.0651C159.973 18.1107 160.136 15.5049 161.765 14.0065ZM163.558 24.5602C164.34 25.5049 165.513 25.6026 166.523 25.6026C167.533 25.6026 168.673 25.5374 169.488 24.5602C170.465 23.355 170.53 20.8469 170.53 20.0651C170.53 19.2834 170.465 16.7426 169.488 15.57C168.706 14.6254 167.533 14.5277 166.523 14.5277C165.513 14.5277 164.372 14.5928 163.558 15.57C162.58 16.7752 162.515 19.2834 162.515 20.0651C162.515 20.8469 162.58 23.355 163.558 24.5602Z" fill="#161616"/>
<path d="M178.122 12.8338V14.7231C179.523 13.0619 181.315 12.8013 182.521 12.8013C183.466 12.8013 185.193 12.899 186.072 14.8208C186.691 14.0065 187.897 12.8013 190.471 12.8013C192.361 12.8013 193.371 13.4202 193.892 14.0065C194.967 15.0814 195 16.7426 195 18.241V27.3615H192.524V18.241C192.524 16.8404 192.361 16.1237 192.068 15.6677C191.742 15.1465 191.058 14.7231 190.178 14.7231C188.94 14.7231 187.31 15.6026 186.561 17.3615V27.3615H184.085V18.241C184.085 17.2638 184.02 16.3192 183.629 15.7003C183.303 15.1465 182.651 14.7231 181.706 14.7231C180.37 14.7231 178.904 15.6677 178.09 17.3615V27.3941H175.613V13.0619L178.122 12.8338Z" fill="#161616"/>
<path d="M27.3697 18.925H13.1635C12.2838 18.925 11.5996 18.2084 11.5996 17.3615V12.1172C11.5996 11.2377 12.3164 10.5537 13.1635 10.5537H28.4123C28.9988 10.5537 29.455 10.0977 29.455 9.51134V8.46899H12.6422C10.8828 8.46899 9.48169 9.86965 9.48169 11.6286V17.9478C9.48169 19.6742 10.8828 21.1074 12.6422 21.1074H26.8483C27.7281 21.1074 28.4123 21.824 28.4123 22.6709V27.9152C28.4123 28.7947 27.6955 29.4788 26.8483 29.4788H11.567C10.9805 29.4788 10.5243 29.9348 10.5243 30.5211V31.5635H27.3371C29.064 31.5635 30.4976 30.1628 30.4976 28.4038V22.0846C30.5302 20.3582 29.0965 18.925 27.3697 18.925Z" fill="white"/>
<path d="M25.2518 27.3616H12.6423C12.0558 27.3616 11.5996 26.9056 11.5996 26.3193V24.202C11.5996 23.6157 12.0558 23.1597 12.6423 23.1597H25.2518C25.8383 23.1597 26.2945 23.6157 26.2945 24.202V26.3193C26.2945 26.873 25.8383 27.3616 25.2518 27.3616Z" fill="white"/>
<path d="M27.337 16.8404H14.7275C14.141 16.8404 13.6848 16.3844 13.6848 15.798V13.6808C13.6848 13.0945 14.141 12.6384 14.7275 12.6384H27.337C27.9235 12.6384 28.3797 13.0945 28.3797 13.6808V15.798C28.4122 16.3518 27.9235 16.8404 27.337 16.8404Z" fill="white"/>
</svg>
